<mxfile host="app.diagrams.net" modified="2021-06-24T14:16:11.319Z" agent="5.0 (Windows NT 10.0; Win64; x64) AppleWebKit/537.36 (KHTML, like Gecko) Chrome/91.0.4472.114 Safari/537.36 Edg/91.0.864.54" etag="ANwbWjfeiFbu-X7-fYR7" version="14.8.0" type="github">
  <diagram id="TiYXyFhe4NTS8cn9fNg8" name="Page-1">
    <mxGraphModel dx="813" dy="477" grid="1" gridSize="10" guides="1" tooltips="1" connect="1" arrows="1" fold="1" page="1" pageScale="1" pageWidth="827" pageHeight="1169" math="0" shadow="0">
      <root>
        <mxCell id="0" />
        <mxCell id="1" parent="0" />
        <mxCell id="DS09eDRxhQdFsYPHeKOK-2" value="" style="whiteSpace=wrap;html=1;aspect=fixed;" vertex="1" parent="1">
          <mxGeometry x="210" y="40" width="430" height="430" as="geometry" />
        </mxCell>
        <mxCell id="DS09eDRxhQdFsYPHeKOK-7" value="Http" style="edgeStyle=orthogonalEdgeStyle;rounded=0;orthogonalLoop=1;jettySize=auto;html=1;" edge="1" parent="1" source="DS09eDRxhQdFsYPHeKOK-1" target="DS09eDRxhQdFsYPHeKOK-4">
          <mxGeometry relative="1" as="geometry" />
        </mxCell>
        <mxCell id="DS09eDRxhQdFsYPHeKOK-1" value="Client" style="verticalLabelPosition=bottom;html=1;verticalAlign=top;align=center;strokeColor=none;fillColor=#00BEF2;shape=mxgraph.azure.user;" vertex="1" parent="1">
          <mxGeometry x="60" y="220" width="47.5" height="50" as="geometry" />
        </mxCell>
        <mxCell id="DS09eDRxhQdFsYPHeKOK-6" value="http" style="edgeStyle=orthogonalEdgeStyle;rounded=0;orthogonalLoop=1;jettySize=auto;html=1;" edge="1" parent="1" source="DS09eDRxhQdFsYPHeKOK-4" target="DS09eDRxhQdFsYPHeKOK-5">
          <mxGeometry relative="1" as="geometry" />
        </mxCell>
        <mxCell id="DS09eDRxhQdFsYPHeKOK-4" value="Frontend" style="aspect=fixed;html=1;points=[];align=center;image;fontSize=12;image=img/lib/azure2/containers/App_Services.svg;" vertex="1" parent="1">
          <mxGeometry x="280" y="110" width="50" height="50" as="geometry" />
        </mxCell>
        <mxCell id="DS09eDRxhQdFsYPHeKOK-10" style="edgeStyle=orthogonalEdgeStyle;rounded=0;orthogonalLoop=1;jettySize=auto;html=1;" edge="1" parent="1" source="DS09eDRxhQdFsYPHeKOK-5" target="DS09eDRxhQdFsYPHeKOK-9">
          <mxGeometry relative="1" as="geometry" />
        </mxCell>
        <mxCell id="DS09eDRxhQdFsYPHeKOK-5" value="Backend" style="aspect=fixed;html=1;points=[];align=center;image;fontSize=12;image=img/lib/azure2/containers/App_Services.svg;" vertex="1" parent="1">
          <mxGeometry x="520" y="110" width="50" height="50" as="geometry" />
        </mxCell>
        <mxCell id="DS09eDRxhQdFsYPHeKOK-9" value="Database" style="aspect=fixed;html=1;points=[];align=center;image;fontSize=12;image=img/lib/azure2/databases/SQL_Database.svg;" vertex="1" parent="1">
          <mxGeometry x="520" y="280" width="48" height="64" as="geometry" />
        </mxCell>
      </root>
    </mxGraphModel>
  </diagram>
</mxfile>
